<svg width="100" height="100" viewBox="0 0 100 100" fill="none" xmlns="http://www.w3.org/2000/svg">
<g clip-path="url(#clip0_4_8)">
<mask id="mask0_4_8" style="mask-type:alpha" maskUnits="userSpaceOnUse" x="0" y="0" width="500" height="500">
<rect width="500" height="500" fill="#D9D9D9"/>
</mask>
<g mask="url(#mask0_4_8)">
<path d="M61.8533 44.4676L54.6667 37.2632L68.0133 23.8838L54.6667 10.5043L61.8533 3.3L75.2 16.6795L88.5467 3.3L95.7333 10.5043L82.3867 23.8838L95.7333 37.2632L88.5467 44.4676L75.2 31.0881L61.8533 44.4676ZM23.8667 98.5C18.22 98.5 13.3861 96.4845 9.36501 92.4535C5.34389 88.4225 3.33334 83.5768 3.33334 77.9162C3.33334 72.1699 5.34389 67.3027 9.36501 63.3146C13.3861 59.3265 18.22 57.3324 23.8667 57.3324C29.5133 57.3324 34.3472 59.3479 38.3683 63.3789C42.3895 67.4099 44.4 72.2557 44.4 77.9162C44.4 83.5768 42.3895 88.4225 38.3683 92.4535C34.3472 96.4845 29.5133 98.5 23.8667 98.5ZM23.8667 88.2081C26.69 88.2081 29.1069 87.2004 31.1175 85.1849C33.1281 83.1694 34.1333 80.7465 34.1333 77.9162C34.1333 75.0859 33.1281 72.6631 31.1175 70.6476C29.1069 68.6321 26.69 67.6243 23.8667 67.6243C21.0433 67.6243 18.6264 68.6321 16.6158 70.6476C14.6053 72.6631 13.6 75.0859 13.6 77.9162C13.6 80.7465 14.6053 83.1694 16.6158 85.1849C18.6264 87.2004 21.0433 88.2081 23.8667 88.2081Z" fill="#6B2F9B"/>
<path d="M61.8533 44.4676L54.6667 37.2632L68.0133 23.8838L54.6667 10.5043L61.8533 3.3L75.2 16.6795L88.5467 3.3L95.7333 10.5043L82.3867 23.8838L95.7333 37.2632L88.5467 44.4676L75.2 31.0881L61.8533 44.4676ZM23.8667 98.5C18.22 98.5 13.3861 96.4845 9.36501 92.4535C5.34389 88.4225 3.33334 83.5768 3.33334 77.9162C3.33334 72.1699 5.34389 67.3027 9.36501 63.3146C13.3861 59.3265 18.22 57.3324 23.8667 57.3324C29.5133 57.3324 34.3472 59.3479 38.3683 63.3789C42.3895 67.4099 44.4 72.2557 44.4 77.9162C44.4 83.5768 42.3895 88.4225 38.3683 92.4535C34.3472 96.4845 29.5133 98.5 23.8667 98.5ZM23.8667 88.2081C26.69 88.2081 29.1069 87.2004 31.1175 85.1849C33.1281 83.1694 34.1333 80.7465 34.1333 77.9162C34.1333 75.0859 33.1281 72.6631 31.1175 70.6476C29.1069 68.6321 26.69 67.6243 23.8667 67.6243C21.0433 67.6243 18.6264 68.6321 16.6158 70.6476C14.6053 72.6631 13.6 75.0859 13.6 77.9162C13.6 80.7465 14.6053 83.1694 16.6158 85.1849C18.6264 87.2004 21.0433 88.2081 23.8667 88.2081Z" fill="#6B2F9B"/>
<path d="M10.52 44.1676L3.33333 36.9632L16.68 23.5838L3.33333 10.2043L10.52 3L23.8667 16.3795L37.2133 3L44.4 10.2043L31.0533 23.5838L44.4 36.9632L37.2133 44.1676L23.8667 30.7881L10.52 44.1676ZM-27.4667 98.2C-33.1133 98.2 -37.9472 96.1845 -41.9683 92.1535C-45.9894 88.1225 -48 83.2768 -48 77.6162C-48 71.8699 -45.9894 67.0027 -41.9683 63.0146C-37.9472 59.0265 -33.1133 57.0324 -27.4667 57.0324C-21.82 57.0324 -16.9861 59.0479 -12.965 63.0789C-8.94389 67.1099 -6.93334 71.9557 -6.93334 77.6162C-6.93334 83.2768 -8.94389 88.1225 -12.965 92.1535C-16.9861 96.1845 -21.82 98.2 -27.4667 98.2ZM-27.4667 87.9081C-24.6433 87.9081 -22.2264 86.9004 -20.2158 84.8849C-18.2053 82.8694 -17.2 80.4465 -17.2 77.6162C-17.2 74.7859 -18.2053 72.3631 -20.2158 70.3476C-22.2264 68.3321 -24.6433 67.3243 -27.4667 67.3243C-30.29 67.3243 -32.7069 68.3321 -34.7175 70.3476C-36.7281 72.3631 -37.7333 74.7859 -37.7333 77.6162C-37.7333 80.4465 -36.7281 82.8694 -34.7175 84.8849C-32.7069 86.9004 -30.29 87.9081 -27.4667 87.9081Z" fill="#6B2F9B"/>
<path d="M10.52 44.1676L3.33333 36.9632L16.68 23.5838L3.33333 10.2043L10.52 3L23.8667 16.3795L37.2133 3L44.4 10.2043L31.0533 23.5838L44.4 36.9632L37.2133 44.1676L23.8667 30.7881L10.52 44.1676ZM-27.4667 98.2C-33.1133 98.2 -37.9472 96.1845 -41.9683 92.1535C-45.9894 88.1225 -48 83.2768 -48 77.6162C-48 71.8699 -45.9894 67.0027 -41.9683 63.0146C-37.9472 59.0265 -33.1133 57.0324 -27.4667 57.0324C-21.82 57.0324 -16.9861 59.0479 -12.965 63.0789C-8.94389 67.1099 -6.93334 71.9557 -6.93334 77.6162C-6.93334 83.2768 -8.94389 88.1225 -12.965 92.1535C-16.9861 96.1845 -21.82 98.2 -27.4667 98.2ZM-27.4667 87.9081C-24.6433 87.9081 -22.2264 86.9004 -20.2158 84.8849C-18.2053 82.8694 -17.2 80.4465 -17.2 77.6162C-17.2 74.7859 -18.2053 72.3631 -20.2158 70.3476C-22.2264 68.3321 -24.6433 67.3243 -27.4667 67.3243C-30.29 67.3243 -32.7069 68.3321 -34.7175 70.3476C-36.7281 72.3631 -37.7333 74.7859 -37.7333 77.6162C-37.7333 80.4465 -36.7281 82.8694 -34.7175 84.8849C-32.7069 86.9004 -30.29 87.9081 -27.4667 87.9081Z" fill="#6B2F9B"/>
<path d="M114.287 44.1676L107.1 36.9632L120.447 23.5838L107.1 10.2043L114.287 3L127.633 16.3795L140.98 3L148.167 10.2043L134.82 23.5838L148.167 36.9632L140.98 44.1676L127.633 30.7881L114.287 44.1676ZM76.3 98.2C70.6533 98.2 65.8195 96.1845 61.7983 92.1535C57.7772 88.1225 55.7667 83.2768 55.7667 77.6162C55.7667 71.8699 57.7772 67.0027 61.7983 63.0146C65.8195 59.0265 70.6533 57.0324 76.3 57.0324C81.9467 57.0324 86.7806 59.0479 90.8017 63.0789C94.8228 67.1099 96.8333 71.9557 96.8333 77.6162C96.8333 83.2768 94.8228 88.1225 90.8017 92.1535C86.7806 96.1845 81.9467 98.2 76.3 98.2ZM76.3 87.9081C79.1233 87.9081 81.5403 86.9004 83.5508 84.8849C85.5614 82.8694 86.5667 80.4465 86.5667 77.6162C86.5667 74.7859 85.5614 72.3631 83.5508 70.3476C81.5403 68.3321 79.1233 67.3243 76.3 67.3243C73.4767 67.3243 71.0597 68.3321 69.0492 70.3476C67.0386 72.3631 66.0333 74.7859 66.0333 77.6162C66.0333 80.4465 67.0386 82.8694 69.0492 84.8849C71.0597 86.9004 73.4767 87.9081 76.3 87.9081Z" fill="#6B2F9B"/>
<path d="M114.287 44.1676L107.1 36.9632L120.447 23.5838L107.1 10.2043L114.287 3L127.633 16.3795L140.98 3L148.167 10.2043L134.82 23.5838L148.167 36.9632L140.98 44.1676L127.633 30.7881L114.287 44.1676ZM76.3 98.2C70.6533 98.2 65.8195 96.1845 61.7983 92.1535C57.7772 88.1225 55.7667 83.2768 55.7667 77.6162C55.7667 71.8699 57.7772 67.0027 61.7983 63.0146C65.8195 59.0265 70.6533 57.0324 76.3 57.0324C81.9467 57.0324 86.7806 59.0479 90.8017 63.0789C94.8228 67.1099 96.8333 71.9557 96.8333 77.6162C96.8333 83.2768 94.8228 88.1225 90.8017 92.1535C86.7806 96.1845 81.9467 98.2 76.3 98.2ZM76.3 87.9081C79.1233 87.9081 81.5403 86.9004 83.5508 84.8849C85.5614 82.8694 86.5667 80.4465 86.5667 77.6162C86.5667 74.7859 85.5614 72.3631 83.5508 70.3476C81.5403 68.3321 79.1233 67.3243 76.3 67.3243C73.4767 67.3243 71.0597 68.3321 69.0492 70.3476C67.0386 72.3631 66.0333 74.7859 66.0333 77.6162C66.0333 80.4465 67.0386 82.8694 69.0492 84.8849C71.0597 86.9004 73.4767 87.9081 76.3 87.9081Z" fill="#6B2F9B"/>
</g>
<rect y="47" width="100" height="7" fill="#6B2F9B"/>
<rect x="46" width="7" height="100" fill="#6B2F9B"/>
</g>
<defs>
<clipPath id="clip0_4_8">
<rect width="100" height="100" fill="white"/>
</clipPath>
</defs>
</svg>
